<svg xmlns="http://www.w3.org/2000/svg" width="174" height="172"><path d="M0 0h174v172H0V0z" fill="#FDFDFD"/><path d="M13 99h104c3.198 6.395 6.223 12.654 8.926 19.242l1.064 2.571c.739 1.786 1.476 3.573 2.21 5.36 1.096 2.663 2.197 5.323 3.298 7.983A3552.02 3552.02 0 0 1 139 150l1.16 2.844c1.132 2.782 2.259 5.566 3.383 8.351l1.054 2.593.958 2.384.848 2.1C147 170 147 170 147 172H0c0-29.407.472-47.944 13-73z" fill="#484848"/><path d="M112 0h62v135c-2.66-3.548-4.475-6.891-6.266-10.887l-.939-2.063c-1.02-2.244-2.032-4.49-3.045-6.737l-2.156-4.751c-1.482-3.262-2.96-6.526-4.436-9.791-2.887-6.386-5.787-12.766-8.687-19.146l-2.744-6.043a7664.755 7664.755 0 0 0-14.477-31.644l-2.158-4.697a6746.751 6746.751 0 0 0-8.776-19.04c-.806-1.738-1.61-3.477-2.413-5.216-.949-2.055-1.901-4.108-2.857-6.16l-1.237-2.68-1.069-2.302C112 2 112 2 112 0z" fill="#494949"/><path d="M50 0h27l2.465 5.813a194325.152 194325.152 0 0 0 5.332 12.576 7413.41 7413.41 0 0 0 9.725 22.85c1.569 3.668 3.135 7.336 4.702 11.005.768 1.797 1.537 3.594 2.308 5.39 1.084 2.525 2.163 5.053 3.241 7.58l.993 2.304C108 72.772 108 72.772 108 75H22c3.375-11.25 3.375-11.25 5.097-15.702l1.164-3.026 1.231-3.167 1.297-3.36c1.358-3.521 2.722-7.04 4.086-10.557l2.723-7.05c1.68-4.35 3.362-8.699 5.046-13.047C45.106 12.73 47.554 6.366 50 0z" fill="#4A4A4A"/><path d="M0 0h24c-3.375 10.125-3.375 10.125-4.854 13.674l-1 2.417-1.052 2.51-1.11 2.67c-1.158 2.785-2.32 5.57-3.484 8.354l-2.34 5.625C7.137 42.513 4.111 49.774 1 57H0V0z" fill="#484848"/></svg>