<svg version="1.0" xmlns="http://www.w3.org/2000/svg" width="232" height="232" viewBox="0 0 174 174"><path d="M0 29.7c0 15.7.2 28.4.4 28.2.3-.3 20.9-49.5 23.3-55.7.4-.9-2.3-1.2-11.6-1.2H0v28.7zM50.6 1.8c-.3.5-6.7 16.8-14.2 36.3-7.5 19.5-13.8 36-14.1 36.6-.4 1 8.4 1.3 42.1 1.3 36 0 42.6-.2 42.6-1.4 0-.8-6.9-17.6-15.4-37.3L76.3 1.5l-12.6-.3c-6.9-.1-12.8.1-13.1.6zM112 1.3c0 .2 4.5 10.2 10.1 22.3 5.5 12 19.3 42.1 30.6 66.9 11.3 24.7 20.7 45.2 20.9 45.4.2.2.4-30 .4-67.2V1h-31c-17 0-31 .1-31 .3zM6.6 118.2 0 136.5V173h73.5c40.4 0 73.5-.2 73.5-.4 0-.4-16.4-40.2-25.8-62.6l-4-9.5-51.9-.3-52-.2-6.7 18.2z"/></svg>